<?xml version="1.0" encoding="utf-8"?>
<!-- Svg Vector Icons : http://www.onlinewebfonts.com/icon -->
<!DOCTYPE svg PUBLIC "-//W3C//DTD SVG 1.1//EN" "http://www.w3.org/Graphics/SVG/1.1/DTD/svg11.dtd">
<svg version="1.1" xmlns="http://www.w3.org/2000/svg" xmlns:xlink="http://www.w3.org/1999/xlink" x="0px" y="0px" viewBox="0 0 1000 1000" enable-background="new 0 0 1000 1000" xml:space="preserve">
<metadata> Svg Vector Icons : http://www.onlinewebfonts.com/icon </metadata>
<g><g><path d="M974.2,500.7L531.1,71.5c-33.2-32.2-59.9-0.1-59.9-0.1l-444.8,429c0,0-36.9,32.7-0.2,72.2c36.7,39.5,107.1-48.1,112.8-55l-1.5,365c0,0-5.8,60.3,58.9,60.3h151c19.1,0,37-22.2,37-40.5V603.1c0,0,0.4-32,32-32h51.8h69h45c31.6,0,38.7,32,38.7,32v299.2c0,18.4,18,40.5,37.1,40.5h144.3c64.7,0,59.1-60.3,59.1-60.3l-1.3-363.2c5.7,6.9,76.6,93.5,113.2,54.1C1010.2,533.9,974.2,500.7,974.2,500.7z M513,331.8c5-16.4,18.4-26.6,29.9-22.7c11.5,3.9,16.8,20.3,11.8,36.7c-5,16.4-18.4,26.6-29.9,22.7C513.3,364.6,508,348.2,513,331.8z M472,308.5c10.9-3.5,24.2,7.4,29.6,24.3c5.4,16.9,0.9,33.4-10,36.9c-10.9,3.5-24.2-7.4-29.6-24.3C456.6,328.4,461.1,311.9,472,308.5z M454.1,408.5c-10.4,3.3-23-7.1-28.2-23.1c-5.2-16-0.9-31.7,9.5-35c10.4-3.3,23,7.1,28.2,23.1C468.8,389.6,464.5,405.3,454.1,408.5z M528.3,452.5c0,0-10.6-10.8-19.4-10.8l-2.3,1c-8.8,0-19.4,12.7-19.4,12.7s-25.1,16.6-24.9-14.9c-0.2-53.7,44.4-55.3,44.4-55.3h2.3c0,0,44.6,1.8,44.4,55.5C553.4,472.3,528.3,452.5,528.3,452.5z M590.7,386.3c-4.8,15.7-17.1,25.6-27.6,22.1c-10.4-3.5-15-19-10.2-34.8c4.8-15.7,17.1-25.6,27.6-22.1C591,355.1,595.5,370.6,590.7,386.3z"/></g><g></g><g></g><g></g><g></g><g></g><g></g><g></g><g></g><g></g><g></g><g></g><g></g><g></g><g></g><g></g></g>
</svg>